# xmcd CD database file
#
# Track frame offsets:
#	150
#	19100
#	34584
#	50253
#	71262
#	84205
#	101848
#	120222
#	137445
#	158968
#	174063
#
# Disc length: 2504 seconds
#
# Revision: 0
# Processed by: cddbd v1.5.1PL2 Copyright (c) Steve Scherf et al.
# Submitted via: CDex 1.50
#
DISCID=7409c60b
DTITLE=Michael O'Rourke - Till Forever Is Gone
DYEAR=2005
DGENRE=Country
TTITLE0=Till Forever Is Gone
TTITLE1=Thanks But No Thanks
TTITLE2=Out Of The Blue
TTITLE3=Sunday Roast
TTITLE4=One Moment In Time
TTITLE5=The Hat
TTITLE6=Running Out Of Time
TTITLE7=I'll Wait
TTITLE8=Don't Hold Back
TTITLE9=My Heart To Keep
TTITLE10=Dreams Of Mine
EXTD=YEAR: 2005
EXTT0=
EXTT1=
EXTT2=
EXTT3=
EXTT4=
EXTT5=
EXTT6=
EXTT7=
EXTT8=
EXTT9=
EXTT10=
PLAYORDER=
